<?xml version="1.0" encoding="UTF-8"?>
<svg xmlns="http://www.w3.org/2000/svg" version="1.1" viewBox="0 0 16 16">
  <!-- Generator: Adobe Illustrator 28.7.1, SVG Export Plug-In . SVG Version: 1.2.0 Build 142)  -->
  <g>
    <g id="_图层_1" data-name="图层_1">
      <path d="M5.3,3.4c.1.2.2.4,0,.6-.4.8-.7,1.7-.6,2.6,0,3,2.4,5.4,5.4,5.4.4,0,.8,0,1.1-.1.2,0,.5,0,.6.2.1.2.1.5,0,.7-1.2,1.4-2.9,2.3-4.8,2.3-3.4,0-6.2-2.7-6.2-6.1s1.6-4.7,3.8-5.7c.2,0,.5,0,.6.2M4.4,4.1c-1.7.9-2.8,2.8-2.8,4.7,0,3,2.4,5.4,5.4,5.4,1.4,0,2.8-.6,3.8-1.6-.2,0-.5,0-.8,0-3.4,0-6.2-2.7-6.2-6.1s.2-1.7.5-2.4"/>
      <path d="M11.1,8c-1,0-1.8-.8-1.8-1.8s.8-1.8,1.8-1.8,1.8.8,1.8,1.8-.8,1.8-1.8,1.8M11.1,8.6c1.3,0,2.4-1.1,2.4-2.4s-1.1-2.4-2.4-2.4-2.4,1.1-2.4,2.4,1.1,2.4,2.4,2.4M11.1,1.5c.2,0,.3.1.3.3v1.2c0,.2-.1.3-.3.3s-.3-.1-.3-.3v-1.2c0-.2.1-.3.3-.3M11.1,9.2c.2,0,.3.1.3.3v1.2c0,.2-.1.3-.3.3s-.3-.1-.3-.3v-1.2c0-.2.1-.3.3-.3M15.8,6.3c0,.2-.1.3-.3.3h-1.2c-.2,0-.3-.1-.3-.3s.1-.3.3-.3h1.2c.2,0,.3.1.3.3M8.2,6.3c0,.2-.1.3-.3.3h-1.2c-.2,0-.3-.1-.3-.3s.1-.3.3-.3h1.2c.2,0,.3.1.3.3M14.5,2.9c.1.1.1.3,0,.4l-.8.8c-.1.1-.3.1-.4,0-.1-.1-.1-.3,0-.4l.8-.8c.1-.1.3-.1.4,0M9,8.3c.1.1.1.3,0,.4l-.8.8c-.1.1-.3.1-.4,0-.1-.1-.1-.3,0-.4l.8-.8c.1-.1.3-.1.4,0M14.5,9.6c-.1.1-.3.1-.4,0l-.8-.8c-.1-.1-.1-.3,0-.4.1-.1.3-.1.4,0l.8.8c.1.1.1.3,0,.4M9,4.2c-.1.1-.3.1-.4,0l-.8-.8c-.1-.1-.1-.3,0-.4.1-.1.3-.1.4,0,0,0,0,0,0,0l.8.8c.1.1.1.3,0,.4,0,0,0,0,0,0"/>
    </g>
  </g>
</svg>